<svg width="62" height="63" viewBox="0 0 62 63" fill="none" xmlns="http://www.w3.org/2000/svg">
<path d="M57.6406 6.89062H4.35938C3.46043 6.89163 2.59859 7.25495 1.96294 7.90085C1.32729 8.54675 0.969744 9.42249 0.96875 10.3359V44.7891C0.969744 45.7025 1.32729 46.5782 1.96294 47.2241C2.59859 47.8701 3.46043 48.2334 4.35938 48.2344H23.7562L22.5937 51.1875H17.4375C17.1806 51.1875 16.9342 51.2912 16.7525 51.4758C16.5708 51.6604 16.4688 51.9108 16.4688 52.1719V54.1406H10.6562C10.3993 54.1406 10.1529 54.2443 9.97124 54.4289C9.78956 54.6135 9.6875 54.8639 9.6875 55.125C9.6875 55.3861 9.78956 55.6365 9.97124 55.8211C10.1529 56.0057 10.3993 56.1094 10.6562 56.1094H51.3438C51.6007 56.1094 51.8471 56.0057 52.0288 55.8211C52.2104 55.6365 52.3125 55.3861 52.3125 55.125C52.3125 54.8639 52.2104 54.6135 52.0288 54.4289C51.8471 54.2443 51.6007 54.1406 51.3438 54.1406H45.5312V52.1719C45.5312 51.9108 45.4292 51.6604 45.2475 51.4758C45.0658 51.2912 44.8194 51.1875 44.5625 51.1875H39.4063L38.2438 48.2344H57.6406C58.5396 48.2334 59.4014 47.8701 60.0371 47.2241C60.6727 46.5782 61.0303 45.7025 61.0312 44.7891V10.3359C61.0303 9.42249 60.6727 8.54675 60.0371 7.90085C59.4014 7.25495 58.5396 6.89163 57.6406 6.89062V6.89062ZM43.5938 53.1562V54.1406H18.4062V53.1562H43.5938ZM24.6813 51.1875L25.8438 48.2344H36.1562L37.3187 51.1875H24.6813ZM59.0938 44.7891C59.0934 45.1806 58.9402 45.556 58.6678 45.8328C58.3953 46.1096 58.0259 46.2653 57.6406 46.2656H4.35938C3.97408 46.2653 3.60466 46.1096 3.33221 45.8328C3.05977 45.556 2.90657 45.1806 2.90625 44.7891V42.3281H59.0938V44.7891ZM59.0938 40.3594H2.90625V10.3359C2.90657 9.94443 3.05977 9.56905 3.33221 9.29221C3.60466 9.01537 3.97408 8.8597 4.35938 8.85938H57.6406C58.0259 8.8597 58.3953 9.01537 58.6678 9.29221C58.9402 9.56905 59.0934 9.94443 59.0938 10.3359V40.3594Z" fill="#FFB400"/>
<path d="M26.5935 32.3227C26.6999 32.3936 26.819 32.4426 26.944 32.4667C27.0689 32.4909 27.1974 32.4898 27.322 32.4635C27.4465 32.4373 27.5648 32.3863 27.67 32.3136C27.7752 32.2409 27.8652 32.1478 27.935 32.0397L35.5639 20.2272C35.7049 20.0089 35.7548 19.7427 35.7026 19.4871C35.6504 19.2314 35.5004 19.0074 35.2856 18.8641C35.0708 18.7208 34.8088 18.6701 34.5573 18.7232C34.3057 18.7762 34.0852 18.9286 33.9442 19.1469L26.3153 30.9594C26.2454 31.0674 26.1972 31.1884 26.1734 31.3154C26.1496 31.4425 26.1506 31.573 26.1764 31.6996C26.2023 31.8262 26.2524 31.9464 26.324 32.0533C26.3955 32.1602 26.4871 32.2518 26.5935 32.3227Z" fill="#FFB400"/>
<path d="M37.1612 32.2561C37.3586 32.4232 37.6132 32.5038 37.8691 32.4802C38.125 32.4565 38.3611 32.3306 38.5256 32.13L43.3693 26.2238C43.5144 26.0469 43.5938 25.8239 43.5938 25.5936C43.5938 25.3634 43.5144 25.1404 43.3693 24.9635L38.5256 19.0573C38.4444 18.9571 38.3445 18.8743 38.2317 18.8135C38.119 18.7527 37.9954 18.7152 37.8683 18.703C37.7412 18.6909 37.613 18.7044 37.491 18.7429C37.3691 18.7813 37.2558 18.8438 37.1577 18.9268C37.0596 19.0099 36.9786 19.1118 36.9195 19.2268C36.8603 19.3417 36.824 19.4675 36.8128 19.5967C36.8016 19.7259 36.8157 19.8561 36.8541 19.9798C36.8926 20.1035 36.9548 20.2183 37.0371 20.3175L41.364 25.5936L37.0371 30.8698C36.8726 31.0703 36.7933 31.3291 36.8166 31.5891C36.8399 31.8491 36.9638 32.089 37.1612 32.2561V32.2561Z" fill="#FFB400"/>
<path d="M23.4745 32.13C23.5557 32.2301 23.6555 32.313 23.7683 32.3738C23.8811 32.4346 24.0046 32.4721 24.1317 32.4842C24.2589 32.4963 24.3871 32.4828 24.509 32.4444C24.631 32.406 24.7443 32.3435 24.8424 32.2604C24.9405 32.1774 25.0214 32.0754 25.0806 31.9605C25.1398 31.8455 25.176 31.7198 25.1872 31.5906C25.1985 31.4613 25.1844 31.3311 25.1459 31.2074C25.1074 31.0837 25.0453 30.969 24.963 30.8698L20.6361 25.5936L24.963 20.3175C25.0453 20.2183 25.1074 20.1035 25.1459 19.9798C25.1844 19.8561 25.1985 19.7259 25.1872 19.5967C25.176 19.4675 25.1398 19.3417 25.0806 19.2268C25.0214 19.1118 24.9405 19.0099 24.8424 18.9268C24.7443 18.8438 24.631 18.7813 24.509 18.7429C24.3871 18.7044 24.2589 18.6909 24.1317 18.703C24.0046 18.7152 23.8811 18.7527 23.7683 18.8135C23.6555 18.8743 23.5557 18.9571 23.4745 19.0573L18.6307 24.9635C18.4857 25.1404 18.4062 25.3634 18.4062 25.5936C18.4062 25.8239 18.4857 26.0469 18.6307 26.2238L23.4745 32.13Z" fill="#FFB400"/>
</svg>
